<?xml version="1.0" encoding="utf-8"?>
<!-- Generator: Adobe Illustrator 28.0.0, SVG Export Plug-In . SVG Version: 6.00 Build 0)  -->
<svg version="1.1" id="Layer_1" xmlns="http://www.w3.org/2000/svg" xmlns:xlink="http://www.w3.org/1999/xlink" x="0px" y="0px"
	 viewBox="0 0 537.3 513.9" style="enable-background:new 0 0 537.3 513.9;" xml:space="preserve">
<style type="text/css">
	.st0{clip-path:url(#SVGID_00000099644535899597205640000004908111551976017542_);}
	.st1{fill-rule:evenodd;clip-rule:evenodd;fill-opacity:0;}
	.st2{fill:#FFFFFF;}
</style>
<g>
	<defs>
		<rect id="SVGID_1_" x="-211.3" y="-13" width="960" height="540"/>
	</defs>
	<clipPath id="SVGID_00000178890527517055614790000007208084745008294571_">
		<use xlink:href="#SVGID_1_"  style="overflow:visible;"/>
	</clipPath>
	<g style="clip-path:url(#SVGID_00000178890527517055614790000007208084745008294571_);">
		<path class="st1" d="M0,39.1L0,39.1c0-21.6,17.5-39,39-39h459.2c10.4,0,20.3,4.1,27.6,11.4s11.4,17.3,11.4,27.6v435.9
			c0,21.6-17.5,39-39,39H39.1c-21.6,0-39-17.5-39-39V39.1z"/>
		<g transform="matrix(0.7866658857979502 0.0 0.0 0.25097411263533465 211.35332440944885 13.002121389580022)">
			<g>
				<defs>
					<path id="SVGID_00000067946979026986096740000014296431613933078413_" d="M-268.6,103.8L-268.6,103.8
						c0-85.9,22.2-155.6,49.6-155.6h583.7c13.2,0,25.8,16.4,35.1,45.6s14.5,68.8,14.5,110v1736.8c0,85.9-22.2,155.6-49.6,155.6H-219
						c-27.4,0-49.6-69.7-49.6-155.6L-268.6,103.8z"/>
				</defs>
				<clipPath id="SVGID_00000133509412307214098570000002846141178149037443_">
					<use xlink:href="#SVGID_00000067946979026986096740000014296431613933078413_"  style="overflow:visible;"/>
				</clipPath>
				<g style="clip-path:url(#SVGID_00000133509412307214098570000002846141178149037443_);enable-background:new    ;">
					
						<image style="overflow:visible;" width="683" height="2048" xlink:href="F9B90B6A40F9CF78.png"  transform="matrix(1 0 0 1 -268.6451 -51.7982)">
					</image>
				</g>
			</g>
		</g>
		<path class="st1" d="M18.3,17.5H519v479.1H18.3L18.3,17.5z"/>
		<g transform="matrix(1.95603361343832 0.0 0.0 1.8714217391863517 229.62739055118107 30.457596850393706)">
			<g>
				<defs>
					<rect id="SVGID_00000010295577795055868170000018429551222780956060_" x="-230.4" y="-118.5" width="500.7" height="479.1"/>
				</defs>
				<clipPath id="SVGID_00000005234214841868487440000011471759721546187924_">
					<use xlink:href="#SVGID_00000010295577795055868170000018429551222780956060_"  style="overflow:visible;"/>
				</clipPath>
				<g style="clip-path:url(#SVGID_00000005234214841868487440000011471759721546187924_);enable-background:new    ;">
					
						<image style="overflow:visible;" width="256" height="256" xlink:href="F9B90B6A40F9CF79.png"  transform="matrix(1 0 0 1 -108.0421 -6.9466)">
					</image>
				</g>
			</g>
		</g>
		<g>
			<g transform="">
				<g id="g285c50a204e_0_0.3">
					<path class="st1" d="M18.3,15.7H519v482.6H18.3L18.3,15.7z"/>
					<path class="st2" d="M115.1,148.1H94.8V69.8l-24.2,7.5V60.8L113,45.6h2.2V148.1z M151.4,97.8l5.9-52h57.4v16.9H174l-2.5,22
						c4.8-2.6,10-3.9,15.4-3.9c9.8,0,17.4,3,22.9,9.1c5.5,6,8.3,14.5,8.3,25.4c0,6.6-1.4,12.5-4.2,17.8c-2.8,5.2-6.8,9.3-12,12.2
						c-5.2,2.9-11.3,4.3-18.4,4.3c-6.2,0-11.9-1.3-17.2-3.8c-5.3-2.5-9.5-6-12.5-10.6c-3.1-4.6-4.7-9.7-4.9-15.5h20.1
						c0.4,4.3,1.9,7.6,4.5,10c2.6,2.4,5.9,3.5,10,3.5c4.6,0,8.1-1.7,10.6-5c2.5-3.3,3.7-8,3.7-14c0-5.8-1.4-10.3-4.3-13.4
						c-2.9-3.1-6.9-4.6-12.2-4.6c-4.8,0-8.8,1.3-11.8,3.8l-2,1.8L151.4,97.8z M232.9,138.2c0-3.2,1.1-5.9,3.3-7.9c2.2-2,4.9-3,8.2-3
						c3.3,0,6.1,1,8.2,3c2.2,2,3.3,4.6,3.3,7.9c0,3.2-1.1,5.8-3.2,7.8c-2.2,2-4.9,3-8.3,3c-3.3,0-6.1-1-8.2-3
						C234,143.9,232.9,141.3,232.9,138.2z M341.8,105.8c0,14.2-2.9,25-8.8,32.5c-5.9,7.5-14.4,11.2-25.7,11.2
						c-11.2,0-19.7-3.7-25.6-11c-5.9-7.4-8.9-17.9-9.1-31.7V88c0-14.3,3-25.1,8.9-32.5s14.5-11.1,25.6-11.1c11.2,0,19.7,3.7,25.6,11
						s8.9,17.9,9.1,31.6V105.8z M321.4,85.1c0-8.5-1.2-14.7-3.5-18.5c-2.3-3.9-5.9-5.8-10.9-5.8c-4.8,0-8.3,1.8-10.6,5.5
						c-2.3,3.7-3.5,9.4-3.6,17.3v24.9c0,8.3,1.1,14.5,3.4,18.6c2.3,4.1,5.9,6.1,10.9,6.1c5,0,8.6-1.9,10.8-5.8
						c2.2-3.9,3.4-9.8,3.5-17.9V85.1z M431.3,122.7l23.2-77H478l-35.6,102.4h-22L384.9,45.8h23.4L431.3,122.7z"/>
					<path class="st2" d="M133.3,261.3c0,14.2-2.9,25-8.8,32.5c-5.9,7.5-14.4,11.2-25.7,11.2c-11.2,0-19.7-3.7-25.6-11
						c-5.9-7.4-8.9-17.9-9.1-31.7v-18.8c0-14.3,3-25.1,8.9-32.5c5.9-7.4,14.5-11.1,25.6-11.1s19.7,3.7,25.6,11
						c5.9,7.3,8.9,17.9,9.1,31.6V261.3z M113,240.7c0-8.5-1.2-14.7-3.5-18.5c-2.3-3.9-5.9-5.8-10.9-5.8c-4.8,0-8.3,1.8-10.6,5.5
						c-2.3,3.7-3.5,9.4-3.6,17.3V264c0,8.3,1.1,14.5,3.4,18.6c2.3,4.1,5.9,6.1,10.9,6.1c5,0,8.6-1.9,10.8-5.8
						c2.2-3.9,3.4-9.8,3.5-17.9V240.7z M148.9,293.7c0-3.2,1.1-5.9,3.3-7.9c2.2-2,4.9-3,8.2-3c3.3,0,6.1,1,8.2,3
						c2.2,2,3.3,4.6,3.3,7.9c0,3.2-1.1,5.8-3.2,7.8c-2.2,2-4.9,3-8.3,3c-3.3,0-6.1-1-8.2-3C150,299.5,148.9,296.9,148.9,293.7z
						 M249,265.1h11.6v16.4H249v22.2h-20.3v-22.2h-42l-0.9-12.8l42.7-67.4H249V265.1z M206,265.1h22.6V229l-1.3,2.3L206,265.1z
						 M274.5,253.3l5.9-52h57.4v16.9h-40.7l-2.5,22c4.8-2.6,10-3.9,15.4-3.9c9.8,0,17.4,3,22.9,9.1c5.5,6,8.3,14.5,8.3,25.4
						c0,6.6-1.4,12.5-4.2,17.8c-2.8,5.2-6.8,9.3-12,12.2c-5.2,2.9-11.3,4.3-18.4,4.3c-6.2,0-11.9-1.3-17.2-3.8
						c-5.3-2.5-9.5-6-12.5-10.6c-3.1-4.6-4.7-9.7-4.9-15.5H292c0.4,4.3,1.9,7.6,4.5,10c2.6,2.4,5.9,3.5,10,3.5c4.6,0,8.1-1.7,10.6-5
						c2.5-3.3,3.7-8,3.7-14c0-5.8-1.4-10.3-4.3-13.4c-2.9-3.1-6.9-4.6-12.2-4.6c-4.8,0-8.8,1.3-11.8,3.8l-2,1.8L274.5,253.3z
						 M449.9,282.6h-37l-7,21.1h-22.4l38.1-102.4h19.5l38.3,102.4H457L449.9,282.6z M418.7,265.5h25.6l-12.9-38.3L418.7,265.5z"/>
					<path class="st2" d="M146.3,355.7v16.7h-2c-9.2,0.1-16.6,2.5-22.2,7.2c-5.6,4.6-9,11.1-10.1,19.3c5.4-5.5,12.3-8.3,20.6-8.3
						c8.9,0,16,3.2,21.2,9.6c5.2,6.4,7.9,14.8,7.9,25.2c0,6.7-1.4,12.7-4.3,18.1c-2.9,5.4-7,9.6-12.2,12.6c-5.3,3-11.2,4.5-17.9,4.5
						c-10.8,0-19.5-3.7-26.1-11.2c-6.6-7.5-10-17.5-10-30V412c0-11.1,2.1-20.9,6.3-29.4c4.2-8.5,10.2-15.1,18.1-19.8
						c7.9-4.7,17-7,27.3-7.1H146.3z M126.5,407c-3.3,0-6.3,0.9-8.9,2.6c-2.7,1.7-4.6,4-5.9,6.8v6.2c0,6.8,1.3,12.1,4,15.9
						c2.7,3.8,6.4,5.7,11.3,5.7c4.4,0,7.9-1.7,10.6-5.2c2.7-3.4,4-7.9,4-13.4c0-5.6-1.4-10.1-4.1-13.5
						C134.8,408.7,131.1,407,126.5,407z M175.7,449.2c0-3.2,1.1-5.9,3.3-7.9c2.2-2,4.9-3,8.2-3c3.3,0,6.1,1,8.2,3
						c2.2,2,3.3,4.6,3.3,7.9c0,3.2-1.1,5.8-3.2,7.8c-2.2,2-4.9,3-8.3,3c-3.3,0-6.1-1-8.2-3C176.8,455,175.7,452.4,175.7,449.2z
						 M282.4,384c0,5-1.2,9.4-3.7,13.2c-2.5,3.8-5.9,6.9-10.2,9.2c5,2.4,8.9,5.7,11.8,9.9c2.9,4.2,4.4,9.1,4.4,14.8
						c0,9.1-3.1,16.3-9.3,21.6c-6.2,5.3-14.6,7.9-25.2,7.9c-10.6,0-19.1-2.6-25.3-7.9c-6.2-5.3-9.3-12.5-9.3-21.5
						c0-5.7,1.5-10.6,4.4-14.8c2.9-4.2,6.8-7.5,11.7-9.8c-4.4-2.3-7.8-5.4-10.2-9.2c-2.5-3.8-3.7-8.2-3.7-13.2
						c0-8.7,2.9-15.7,8.7-20.8c5.8-5.2,13.7-7.8,23.7-7.8c9.9,0,17.8,2.6,23.7,7.7C279.5,368.2,282.4,375.2,282.4,384z M264.2,429.6
						c0-4.5-1.3-8-3.9-10.7c-2.6-2.7-6-4-10.4-4c-4.3,0-7.8,1.3-10.3,4c-2.6,2.6-3.9,6.2-3.9,10.7c0,4.4,1.3,7.9,3.8,10.5
						c2.5,2.7,6,4,10.5,4c4.4,0,7.9-1.3,10.4-3.9C262.9,437.7,264.2,434.2,264.2,429.6z M262.1,385c0-4-1.1-7.2-3.2-9.6
						c-2.1-2.4-5.1-3.6-8.9-3.6c-3.8,0-6.8,1.2-8.9,3.5c-2.1,2.3-3.2,5.6-3.2,9.7c0,4.1,1.1,7.4,3.2,9.9c2.1,2.5,5.1,3.7,8.9,3.7
						c3.8,0,6.8-1.2,8.9-3.7C261,392.4,262.1,389.1,262.1,385z M416,429.6l13.8-72.8h21l-22.7,102.4h-21.2l-16.7-68.5l-16.7,68.5
						h-21.2l-22.7-102.4h21l13.9,72.7l16.9-72.7h17.9L416,429.6z"/>
				</g>
			</g>
		</g>
		<g id="g285c50a204e_0_0.3_00000152238113819304302120000009245187291369088954_">
			<path class="st1" d="M18.3,15.7H519v482.6H18.3L18.3,15.7z"/>
			<path class="st2" d="M115.1,148.1H94.8V69.8l-24.2,7.5V60.8L113,45.6h2.2V148.1z M151.4,97.8l5.9-52h57.4v16.9H174l-2.5,22
				c4.8-2.6,10-3.9,15.4-3.9c9.8,0,17.4,3,22.9,9.1c5.5,6,8.3,14.5,8.3,25.4c0,6.6-1.4,12.5-4.2,17.8c-2.8,5.2-6.8,9.3-12,12.2
				c-5.2,2.9-11.3,4.3-18.4,4.3c-6.2,0-11.9-1.3-17.2-3.8c-5.3-2.5-9.5-6-12.5-10.6c-3.1-4.6-4.7-9.7-4.9-15.5h20.1
				c0.4,4.3,1.9,7.6,4.5,10c2.6,2.4,5.9,3.5,10,3.5c4.6,0,8.1-1.7,10.6-5c2.5-3.3,3.7-8,3.7-14c0-5.8-1.4-10.3-4.3-13.4
				c-2.9-3.1-6.9-4.6-12.2-4.6c-4.8,0-8.8,1.3-11.8,3.8l-2,1.8L151.4,97.8z M232.9,138.2c0-3.2,1.1-5.9,3.3-7.9c2.2-2,4.9-3,8.2-3
				c3.3,0,6.1,1,8.2,3c2.2,2,3.3,4.6,3.3,7.9c0,3.2-1.1,5.8-3.2,7.8c-2.2,2-4.9,3-8.3,3c-3.3,0-6.1-1-8.2-3
				C234,143.9,232.9,141.3,232.9,138.2z M341.8,105.8c0,14.2-2.9,25-8.8,32.5c-5.9,7.5-14.4,11.2-25.7,11.2
				c-11.2,0-19.7-3.7-25.6-11c-5.9-7.4-8.9-17.9-9.1-31.7V88c0-14.3,3-25.1,8.9-32.5s14.5-11.1,25.6-11.1c11.2,0,19.7,3.7,25.6,11
				s8.9,17.9,9.1,31.6V105.8z M321.4,85.1c0-8.5-1.2-14.7-3.5-18.5c-2.3-3.9-5.9-5.8-10.9-5.8c-4.8,0-8.3,1.8-10.6,5.5
				c-2.3,3.7-3.5,9.4-3.6,17.3v24.9c0,8.3,1.1,14.5,3.4,18.6c2.3,4.1,5.9,6.1,10.9,6.1c5,0,8.6-1.9,10.8-5.8
				c2.2-3.9,3.4-9.8,3.5-17.9V85.1z M431.3,122.7l23.2-77H478l-35.6,102.4h-22L384.9,45.8h23.4L431.3,122.7z"/>
			<path class="st2" d="M133.3,261.3c0,14.2-2.9,25-8.8,32.5c-5.9,7.5-14.4,11.2-25.7,11.2c-11.2,0-19.7-3.7-25.6-11
				c-5.9-7.4-8.9-17.9-9.1-31.7v-18.8c0-14.3,3-25.1,8.9-32.5c5.9-7.4,14.5-11.1,25.6-11.1s19.7,3.7,25.6,11
				c5.9,7.3,8.9,17.9,9.1,31.6V261.3z M113,240.7c0-8.5-1.2-14.7-3.5-18.5c-2.3-3.9-5.9-5.8-10.9-5.8c-4.8,0-8.3,1.8-10.6,5.5
				c-2.3,3.7-3.5,9.4-3.6,17.3V264c0,8.3,1.1,14.5,3.4,18.6c2.3,4.1,5.9,6.1,10.9,6.1c5,0,8.6-1.9,10.8-5.8
				c2.2-3.9,3.4-9.8,3.5-17.9V240.7z M148.9,293.7c0-3.2,1.1-5.9,3.3-7.9c2.2-2,4.9-3,8.2-3c3.3,0,6.1,1,8.2,3
				c2.2,2,3.3,4.6,3.3,7.9c0,3.2-1.1,5.8-3.2,7.8c-2.2,2-4.9,3-8.3,3c-3.3,0-6.1-1-8.2-3C150,299.5,148.9,296.9,148.9,293.7z
				 M249,265.1h11.6v16.4H249v22.2h-20.3v-22.2h-42l-0.9-12.8l42.7-67.4H249V265.1z M206,265.1h22.6V229l-1.3,2.3L206,265.1z
				 M274.5,253.3l5.9-52h57.4v16.9h-40.7l-2.5,22c4.8-2.6,10-3.9,15.4-3.9c9.8,0,17.4,3,22.9,9.1c5.5,6,8.3,14.5,8.3,25.4
				c0,6.6-1.4,12.5-4.2,17.8c-2.8,5.2-6.8,9.3-12,12.2c-5.2,2.9-11.3,4.3-18.4,4.3c-6.2,0-11.9-1.3-17.2-3.8
				c-5.3-2.5-9.5-6-12.5-10.6c-3.1-4.6-4.7-9.7-4.9-15.5H292c0.4,4.3,1.9,7.6,4.5,10c2.6,2.4,5.9,3.5,10,3.5c4.6,0,8.1-1.7,10.6-5
				c2.5-3.3,3.7-8,3.7-14c0-5.8-1.4-10.3-4.3-13.4c-2.9-3.1-6.9-4.6-12.2-4.6c-4.8,0-8.8,1.3-11.8,3.8l-2,1.8L274.5,253.3z
				 M449.9,282.6h-37l-7,21.1h-22.4l38.1-102.4h19.5l38.3,102.4H457L449.9,282.6z M418.7,265.5h25.6l-12.9-38.3L418.7,265.5z"/>
			<path class="st2" d="M146.3,355.7v16.7h-2c-9.2,0.1-16.6,2.5-22.2,7.2c-5.6,4.6-9,11.1-10.1,19.3c5.4-5.5,12.3-8.3,20.6-8.3
				c8.9,0,16,3.2,21.2,9.6c5.2,6.4,7.9,14.8,7.9,25.2c0,6.7-1.4,12.7-4.3,18.1c-2.9,5.4-7,9.6-12.2,12.6c-5.3,3-11.2,4.5-17.9,4.5
				c-10.8,0-19.5-3.7-26.1-11.2c-6.6-7.5-10-17.5-10-30V412c0-11.1,2.1-20.9,6.3-29.4c4.2-8.5,10.2-15.1,18.1-19.8
				c7.9-4.7,17-7,27.3-7.1H146.3z M126.5,407c-3.3,0-6.3,0.9-8.9,2.6c-2.7,1.7-4.6,4-5.9,6.8v6.2c0,6.8,1.3,12.1,4,15.9
				c2.7,3.8,6.4,5.7,11.3,5.7c4.4,0,7.9-1.7,10.6-5.2c2.7-3.4,4-7.9,4-13.4c0-5.6-1.4-10.1-4.1-13.5
				C134.8,408.7,131.1,407,126.5,407z M175.7,449.2c0-3.2,1.1-5.9,3.3-7.9c2.2-2,4.9-3,8.2-3c3.3,0,6.1,1,8.2,3
				c2.2,2,3.3,4.6,3.3,7.9c0,3.2-1.1,5.8-3.2,7.8c-2.2,2-4.9,3-8.3,3c-3.3,0-6.1-1-8.2-3C176.8,455,175.7,452.4,175.7,449.2z
				 M282.4,384c0,5-1.2,9.4-3.7,13.2c-2.5,3.8-5.9,6.9-10.2,9.2c5,2.4,8.9,5.7,11.8,9.9c2.9,4.2,4.4,9.1,4.4,14.8
				c0,9.1-3.1,16.3-9.3,21.6c-6.2,5.3-14.6,7.9-25.2,7.9c-10.6,0-19.1-2.6-25.3-7.9c-6.2-5.3-9.3-12.5-9.3-21.5
				c0-5.7,1.5-10.6,4.4-14.8c2.9-4.2,6.8-7.5,11.7-9.8c-4.4-2.3-7.8-5.4-10.2-9.2c-2.5-3.8-3.7-8.2-3.7-13.2
				c0-8.7,2.9-15.7,8.7-20.8c5.8-5.2,13.7-7.8,23.7-7.8c9.9,0,17.8,2.6,23.7,7.7C279.5,368.2,282.4,375.2,282.4,384z M264.2,429.6
				c0-4.5-1.3-8-3.9-10.7c-2.6-2.7-6-4-10.4-4c-4.3,0-7.8,1.3-10.3,4c-2.6,2.6-3.9,6.2-3.9,10.7c0,4.4,1.3,7.9,3.8,10.5
				c2.5,2.7,6,4,10.5,4c4.4,0,7.9-1.3,10.4-3.9C262.9,437.7,264.2,434.2,264.2,429.6z M262.1,385c0-4-1.1-7.2-3.2-9.6
				c-2.1-2.4-5.1-3.6-8.9-3.6c-3.8,0-6.8,1.2-8.9,3.5c-2.1,2.3-3.2,5.6-3.2,9.7c0,4.1,1.1,7.4,3.2,9.9c2.1,2.5,5.1,3.7,8.9,3.7
				c3.8,0,6.8-1.2,8.9-3.7C261,392.4,262.1,389.1,262.1,385z M416,429.6l13.8-72.8h21l-22.7,102.4h-21.2l-16.7-68.5l-16.7,68.5
				h-21.2l-22.7-102.4h21l13.9,72.7l16.9-72.7h17.9L416,429.6z"/>
		</g>
	</g>
</g>
</svg>
